<?xml version="1.0" standalone="no"?>
 <!DOCTYPE svg PUBLIC "-//W3C//DTD SVG 1.1//EN" 
 "http://www.w3.org/Graphics/SVG/1.1/DTD/svg11.dtd"> 
<svg
  xmlns:svg="http://www.w3.org/2000/svg"
  xmlns="http://www.w3.org/2000/svg"
  xmlns:xlink="http://www.w3.org/1999/xlink"
  version="1.1"
  width="29.700220cm" height="21.000720cm" viewBox="0 0 116930 82680">
<title>SVG Picture created as morse_decoder.svg date 2023/02/09 22:04:38 </title>
  <desc>Picture generated by Eeschema-SVG </desc>
<g style="fill:#000000; fill-opacity:1.000000;stroke:#000000; stroke-opacity:1.000000;
stroke-linecap:round; stroke-linejoin:round;"
 transform="translate(0 0) scale(1 1)">
</g>
<g style="fill:#840000; fill-opacity:0.0; 
stroke:#840000; stroke-width:0.000000; stroke-opacity:1; 
stroke-linecap:round; stroke-linejoin:round;">
</g>
<g style="fill:#840000; fill-opacity:0.0; 
stroke:#840000; stroke-width:60.000000; stroke-opacity:1; 
stroke-linecap:round; stroke-linejoin:round;">
<rect x="69685.905512" y="65357.165354" width="42519.685039" height="12598.425197" rx="0.000000" />
<rect x="3937.007874" y="3937.007874" width="109055.984252" height="74805.984252" rx="0.000000" />
<rect x="4724.409449" y="4724.409449" width="107481.181102" height="73231.181102" rx="0.000000" />
<path d="M23622 4724
L23622 3937
" />
<path d="M43307 4724
L43307 3937
" />
<path d="M62992 4724
L62992 3937
" />
<path d="M82677 4724
L82677 3937
" />
<path d="M102362 4724
L102362 3937
" />
<text x="13779.527559" y="4586.614173"
textLength="617.440945" font-size="682.401575" lengthAdjust="spacingAndGlyphs"
text-anchor="start" opacity="0">1</text>
<g class="stroked-text"><desc>1</desc>
<path d="M14199 4562
L13907 4562
" />
<path d="M14053 4562
L14053 4050
L14004 4123
L13955 4172
L13907 4196
" />
</g><text x="33464.566929" y="4586.614173"
textLength="547.440945" font-size="682.401575" lengthAdjust="spacingAndGlyphs"
text-anchor="start" opacity="0">2</text>
<g class="stroked-text"><desc>2</desc>
<path d="M33592 4099
L33616 4074
L33665 4050
L33787 4050
L33835 4074
L33860 4099
L33884 4147
L33884 4196
L33860 4269
L33567 4562
L33884 4562
" />
</g><text x="53149.606299" y="4586.614173"
textLength="547.440945" font-size="682.401575" lengthAdjust="spacingAndGlyphs"
text-anchor="start" opacity="0">3</text>
<g class="stroked-text"><desc>3</desc>
<path d="M53252 4050
L53569 4050
L53398 4245
L53472 4245
L53520 4269
L53545 4294
L53569 4342
L53569 4464
L53545 4513
L53520 4537
L53472 4562
L53325 4562
L53277 4537
L53252 4513
" />
</g><text x="72834.645669" y="4586.614173"
textLength="547.440945" font-size="682.401575" lengthAdjust="spacingAndGlyphs"
text-anchor="start" opacity="0">4</text>
<g class="stroked-text"><desc>4</desc>
<path d="M73205 4221
L73205 4562
" />
<path d="M73083 4026
L72962 4391
L73278 4391
" />
</g><text x="92519.685039" y="4586.614173"
textLength="547.440945" font-size="682.401575" lengthAdjust="spacingAndGlyphs"
text-anchor="start" opacity="0">5</text>
<g class="stroked-text"><desc>5</desc>
<path d="M92915 4050
L92671 4050
L92647 4294
L92671 4269
L92720 4245
L92842 4245
L92890 4269
L92915 4294
L92939 4342
L92939 4464
L92915 4513
L92890 4537
L92842 4562
L92720 4562
L92671 4537
L92647 4513
" />
</g><text x="112204.724409" y="4586.614173"
textLength="547.440945" font-size="682.401575" lengthAdjust="spacingAndGlyphs"
text-anchor="start" opacity="0">6</text>
<g class="stroked-text"><desc>6</desc>
<path d="M112575 4050
L112478 4050
L112429 4074
L112405 4099
L112356 4172
L112332 4269
L112332 4464
L112356 4513
L112380 4537
L112429 4562
L112527 4562
L112575 4537
L112600 4513
L112624 4464
L112624 4342
L112600 4294
L112575 4269
L112527 4245
L112429 4245
L112380 4269
L112356 4294
L112332 4342
" />
</g><path d="M23622 77955
L23622 78742
" />
<path d="M43307 77955
L43307 78742
" />
<path d="M62992 77955
L62992 78742
" />
<path d="M82677 77955
L82677 78742
" />
<path d="M102362 77955
L102362 78742
" />
<text x="13779.527559" y="78605.196850"
textLength="547.440945" font-size="682.401575" lengthAdjust="spacingAndGlyphs"
text-anchor="start" opacity="0">1</text>
<g class="stroked-text"><desc>1</desc>
<path d="M14199 78580
L13907 78580
" />
<path d="M14053 78580
L14053 78068
L14004 78142
L13955 78190
L13907 78215
" />
</g><text x="33464.566929" y="78605.196850"
textLength="547.440945" font-size="682.401575" lengthAdjust="spacingAndGlyphs"
text-anchor="start" opacity="0">2</text>
<g class="stroked-text"><desc>2</desc>
<path d="M33592 78117
L33616 78093
L33665 78068
L33787 78068
L33835 78093
L33860 78117
L33884 78166
L33884 78215
L33860 78288
L33567 78580
L33884 78580
" />
</g><text x="53149.606299" y="78605.196850"
textLength="547.440945" font-size="682.401575" lengthAdjust="spacingAndGlyphs"
text-anchor="start" opacity="0">3</text>
<g class="stroked-text"><desc>3</desc>
<path d="M53252 78068
L53569 78068
L53398 78263
L53472 78263
L53520 78288
L53545 78312
L53569 78361
L53569 78483
L53545 78532
L53520 78556
L53472 78580
L53325 78580
L53277 78556
L53252 78532
" />
</g><text x="72834.645669" y="78605.196850"
textLength="547.440945" font-size="682.401575" lengthAdjust="spacingAndGlyphs"
text-anchor="start" opacity="0">4</text>
<g class="stroked-text"><desc>4</desc>
<path d="M73205 78239
L73205 78580
" />
<path d="M73083 78044
L72962 78410
L73278 78410
" />
</g><text x="92519.685039" y="78605.196850"
textLength="547.440945" font-size="682.401575" lengthAdjust="spacingAndGlyphs"
text-anchor="start" opacity="0">5</text>
<g class="stroked-text"><desc>5</desc>
<path d="M92915 78068
L92671 78068
L92647 78312
L92671 78288
L92720 78263
L92842 78263
L92890 78288
L92915 78312
L92939 78361
L92939 78483
L92915 78532
L92890 78556
L92842 78580
L92720 78580
L92671 78556
L92647 78532
" />
</g><text x="112204.724409" y="78605.196850"
textLength="547.440945" font-size="682.401575" lengthAdjust="spacingAndGlyphs"
text-anchor="start" opacity="0">6</text>
<g class="stroked-text"><desc>6</desc>
<path d="M112575 78068
L112478 78068
L112429 78093
L112405 78117
L112356 78190
L112332 78288
L112332 78483
L112356 78532
L112380 78556
L112429 78580
L112527 78580
L112575 78556
L112600 78532
L112624 78483
L112624 78361
L112600 78312
L112575 78288
L112527 78263
L112429 78263
L112380 78288
L112356 78312
L112332 78361
" />
</g><path d="M3937 23622
L4724 23622
" />
<path d="M3937 43307
L4724 43307
" />
<path d="M3937 62992
L4724 62992
" />
<text x="4330.708661" y="14035.433071"
textLength="498.700787" font-size="682.401575" lengthAdjust="spacingAndGlyphs"
text-anchor="middle" opacity="0">A</text>
<g class="stroked-text"><desc>A</desc>
<path d="M4208 13864
L4452 13864
" />
<path d="M4160 14011
L4330 13499
L4501 14011
" />
</g><text x="4330.708661" y="33720.472441"
textLength="571.811024" font-size="682.401575" lengthAdjust="spacingAndGlyphs"
text-anchor="middle" opacity="0">B</text>
<g class="stroked-text"><desc>B</desc>
<path d="M4367 33427
L4440 33452
L4464 33476
L4489 33525
L4489 33598
L4464 33647
L4440 33671
L4391 33696
L4196 33696
L4196 33184
L4367 33184
L4415 33208
L4440 33233
L4464 33281
L4464 33330
L4440 33379
L4415 33403
L4367 33427
L4196 33427
" />
</g><text x="4330.708661" y="53405.511811"
textLength="571.811024" font-size="682.401575" lengthAdjust="spacingAndGlyphs"
text-anchor="middle" opacity="0">C</text>
<g class="stroked-text"><desc>C</desc>
<path d="M4489 53332
L4464 53356
L4391 53381
L4342 53381
L4269 53356
L4221 53307
L4196 53259
L4172 53161
L4172 53088
L4196 52991
L4221 52942
L4269 52893
L4342 52869
L4391 52869
L4464 52893
L4489 52918
" />
</g><text x="4330.708661" y="73090.551181"
textLength="571.811024" font-size="682.401575" lengthAdjust="spacingAndGlyphs"
text-anchor="middle" opacity="0">D</text>
<g class="stroked-text"><desc>D</desc>
<path d="M4196 73066
L4196 72554
L4318 72554
L4391 72578
L4440 72627
L4464 72676
L4489 72773
L4489 72846
L4464 72944
L4440 72993
L4391 73041
L4318 73066
L4196 73066
" />
</g><path d="M112992 23622
L112205 23622
" />
<path d="M112992 43307
L112205 43307
" />
<path d="M112992 62992
L112205 62992
" />
<text x="112599.291339" y="14035.433071"
textLength="498.700787" font-size="682.401575" lengthAdjust="spacingAndGlyphs"
text-anchor="middle" opacity="0">A</text>
<g class="stroked-text"><desc>A</desc>
<path d="M112477 13864
L112721 13864
" />
<path d="M112428 14011
L112599 13499
L112769 14011
" />
</g><text x="112599.291339" y="33720.472441"
textLength="571.811024" font-size="682.401575" lengthAdjust="spacingAndGlyphs"
text-anchor="middle" opacity="0">B</text>
<g class="stroked-text"><desc>B</desc>
<path d="M112635 33427
L112708 33452
L112733 33476
L112757 33525
L112757 33598
L112733 33647
L112708 33671
L112660 33696
L112465 33696
L112465 33184
L112635 33184
L112684 33208
L112708 33233
L112733 33281
L112733 33330
L112708 33379
L112684 33403
L112635 33427
L112465 33427
" />
</g><text x="112599.291339" y="53405.511811"
textLength="571.811024" font-size="682.401575" lengthAdjust="spacingAndGlyphs"
text-anchor="middle" opacity="0">C</text>
<g class="stroked-text"><desc>C</desc>
<path d="M112757 53332
L112733 53356
L112660 53381
L112611 53381
L112538 53356
L112489 53307
L112465 53259
L112440 53161
L112440 53088
L112465 52991
L112489 52942
L112538 52893
L112611 52869
L112660 52869
L112733 52893
L112757 52918
" />
</g><text x="112599.291339" y="73090.551181"
textLength="571.811024" font-size="682.401575" lengthAdjust="spacingAndGlyphs"
text-anchor="middle" opacity="0">D</text>
<g class="stroked-text"><desc>D</desc>
<path d="M112465 73066
L112465 72554
L112587 72554
L112660 72578
L112708 72627
L112733 72676
L112757 72773
L112757 72846
L112733 72944
L112708 72993
L112660 73041
L112587 73066
L112465 73066
" />
</g><text x="78741.023622" y="76321.732283"
textLength="2759.645669" font-size="787.401575" lengthAdjust="spacingAndGlyphs"
text-anchor="start" opacity="0">Date: </text>
<g class="stroked-text"><desc>Date: </desc>
<path d="M78911 76293
L78911 75703
L79052 75703
L79136 75731
L79192 75787
L79220 75843
L79249 75956
L79249 76040
L79220 76152
L79192 76209
L79136 76265
L79052 76293
L78911 76293
" />
<path d="M79755 76293
L79755 75984
L79727 75928
L79670 75899
L79558 75899
L79502 75928
" />
<path d="M79755 76265
L79699 76293
L79558 76293
L79502 76265
L79474 76209
L79474 76152
L79502 76096
L79558 76068
L79699 76068
L79755 76040
" />
<path d="M79952 75899
L80177 75899
" />
<path d="M80036 75703
L80036 76209
L80064 76265
L80120 76293
L80177 76293
" />
<path d="M80598 76265
L80542 76293
L80430 76293
L80373 76265
L80345 76209
L80345 75984
L80373 75928
L80430 75899
L80542 75899
L80598 75928
L80627 75984
L80627 76040
L80345 76096
" />
<path d="M80880 76237
L80908 76265
L80880 76293
L80852 76265
L80880 76237
L80880 76293
" />
<path d="M80880 75928
L80908 75956
L80880 75984
L80852 75956
L80880 75928
L80880 75984
" />
</g><path d="M69685 76577
L112205 76577
" />
<text x="70079.606299" y="77424.094488"
textLength="12236.614173" font-size="787.401575" lengthAdjust="spacingAndGlyphs"
text-anchor="start" opacity="0">KiCad E.D.A.  kicad (6.0.8)</text>
<g class="stroked-text"><desc>KiCad E.D.A.  kicad (6.0.8)</desc>
<path d="M70250 77395
L70250 76805
" />
<path d="M70587 77395
L70334 77058
" />
<path d="M70587 76805
L70250 77142
" />
<path d="M70840 77395
L70840 77002
" />
<path d="M70840 76805
L70812 76833
L70840 76861
L70868 76833
L70840 76805
L70840 76861
" />
<path d="M71459 77339
L71431 77367
L71346 77395
L71290 77395
L71206 77367
L71150 77311
L71121 77255
L71093 77142
L71093 77058
L71121 76946
L71150 76889
L71206 76833
L71290 76805
L71346 76805
L71431 76833
L71459 76861
" />
<path d="M71965 77395
L71965 77086
L71937 77030
L71881 77002
L71768 77002
L71712 77030
" />
<path d="M71965 77367
L71909 77395
L71768 77395
L71712 77367
L71684 77311
L71684 77255
L71712 77199
L71768 77170
L71909 77170
L71965 77142
" />
<path d="M72499 77395
L72499 76805
" />
<path d="M72499 77367
L72443 77395
L72331 77395
L72274 77367
L72246 77339
L72218 77283
L72218 77114
L72246 77058
L72274 77030
L72331 77002
L72443 77002
L72499 77030
" />
<path d="M73231 77086
L73427 77086
" />
<path d="M73512 77395
L73231 77395
L73231 76805
L73512 76805
" />
<path d="M73765 77339
L73793 77367
L73765 77395
L73737 77367
L73765 77339
L73765 77395
" />
<path d="M74046 77395
L74046 76805
L74187 76805
L74271 76833
L74327 76889
L74355 76946
L74384 77058
L74384 77142
L74355 77255
L74327 77311
L74271 77367
L74187 77395
L74046 77395
" />
<path d="M74637 77339
L74665 77367
L74637 77395
L74609 77367
L74637 77339
L74637 77395
" />
<path d="M74890 77227
L75171 77227
" />
<path d="M74834 77395
L75030 76805
L75227 77395
" />
<path d="M75424 77339
L75452 77367
L75424 77395
L75396 77367
L75424 77339
L75424 77395
" />
<path d="M76605 77395
L76605 76805
" />
<path d="M76661 77170
L76830 77395
" />
<path d="M76830 77002
L76605 77227
" />
<path d="M77083 77395
L77083 77002
" />
<path d="M77083 76805
L77055 76833
L77083 76861
L77111 76833
L77083 76805
L77083 76861
" />
<path d="M77618 77367
L77561 77395
L77449 77395
L77393 77367
L77364 77339
L77336 77283
L77336 77114
L77364 77058
L77393 77030
L77449 77002
L77561 77002
L77618 77030
" />
<path d="M78124 77395
L78124 77086
L78096 77030
L78039 77002
L77927 77002
L77871 77030
" />
<path d="M78124 77367
L78067 77395
L77927 77395
L77871 77367
L77842 77311
L77842 77255
L77871 77199
L77927 77170
L78067 77170
L78124 77142
" />
<path d="M78658 77395
L78658 76805
" />
<path d="M78658 77367
L78602 77395
L78489 77395
L78433 77367
L78405 77339
L78377 77283
L78377 77114
L78405 77058
L78433 77030
L78489 77002
L78602 77002
L78658 77030
" />
<path d="M79558 77620
L79530 77592
L79474 77508
L79445 77452
L79417 77367
L79389 77227
L79389 77114
L79417 76974
L79445 76889
L79474 76833
L79530 76749
L79558 76721
" />
<path d="M80036 76805
L79923 76805
L79867 76833
L79839 76861
L79783 76946
L79755 77058
L79755 77283
L79783 77339
L79811 77367
L79867 77395
L79980 77395
L80036 77367
L80064 77339
L80092 77283
L80092 77142
L80064 77086
L80036 77058
L79980 77030
L79867 77030
L79811 77058
L79783 77086
L79755 77142
" />
<path d="M80345 77339
L80373 77367
L80345 77395
L80317 77367
L80345 77339
L80345 77395
" />
<path d="M80739 76805
L80795 76805
L80852 76833
L80880 76861
L80908 76917
L80936 77030
L80936 77170
L80908 77283
L80880 77339
L80852 77367
L80795 77395
L80739 77395
L80683 77367
L80655 77339
L80627 77283
L80598 77170
L80598 77030
L80627 76917
L80655 76861
L80683 76833
L80739 76805
" />
<path d="M81189 77339
L81217 77367
L81189 77395
L81161 77367
L81189 77339
L81189 77395
" />
<path d="M81555 77058
L81498 77030
L81470 77002
L81442 76946
L81442 76917
L81470 76861
L81498 76833
L81555 76805
L81667 76805
L81723 76833
L81751 76861
L81780 76917
L81780 76946
L81751 77002
L81723 77030
L81667 77058
L81555 77058
L81498 77086
L81470 77114
L81442 77170
L81442 77283
L81470 77339
L81498 77367
L81555 77395
L81667 77395
L81723 77367
L81751 77339
L81780 77283
L81780 77170
L81751 77114
L81723 77086
L81667 77058
" />
<path d="M81976 77620
L82004 77592
L82061 77508
L82089 77452
L82117 77367
L82145 77227
L82145 77114
L82117 76974
L82089 76889
L82061 76833
L82004 76749
L81976 76721
" />
</g><path d="M69685 75396
L112205 75396
" />
</g>
<g style="fill:#840000; fill-opacity:0.0; 
stroke:#840000; stroke-width:118.110236; stroke-opacity:1; 
stroke-linecap:round; stroke-linejoin:round;">
<text x="103544.173228" y="76321.732283"
textLength="2337.834646" font-size="787.401575" lengthAdjust="spacingAndGlyphs"
text-anchor="start" opacity="0">Rev: </text>
<g class="stroked-text"><desc>Rev: </desc>
<path d="M104098 76293
L103902 76012
" />
<path d="M103761 76293
L103761 75703
L103986 75703
L104042 75731
L104070 75759
L104098 75815
L104098 75899
L104070 75956
L104042 75984
L103986 76012
L103761 76012
" />
<path d="M104577 76265
L104520 76293
L104408 76293
L104352 76265
L104323 76209
L104323 75984
L104352 75928
L104408 75899
L104520 75899
L104577 75928
L104605 75984
L104605 76040
L104323 76096
" />
<path d="M104802 75899
L104942 76293
L105083 75899
" />
<path d="M105308 76237
L105336 76265
L105308 76293
L105280 76265
L105308 76237
L105308 76293
" />
<path d="M105308 75928
L105336 75956
L105308 75984
L105280 75956
L105308 75928
L105308 75984
" />
</g></g>
<g style="fill:#840000; fill-opacity:0.0; 
stroke:#840000; stroke-width:60.000000; stroke-opacity:1; 
stroke-linecap:round; stroke-linejoin:round;">
<text x="70079.606299" y="76321.732283"
textLength="3781.220472" font-size="787.401575" lengthAdjust="spacingAndGlyphs"
text-anchor="start" opacity="0">Size: A4</text>
<g class="stroked-text"><desc>Size: A4</desc>
<path d="M70222 76265
L70306 76293
L70447 76293
L70503 76265
L70531 76237
L70559 76181
L70559 76124
L70531 76068
L70503 76040
L70447 76012
L70334 75984
L70278 75956
L70250 75928
L70222 75871
L70222 75815
L70250 75759
L70278 75731
L70334 75703
L70475 75703
L70559 75731
" />
<path d="M70812 76293
L70812 75899
" />
<path d="M70812 75703
L70784 75731
L70812 75759
L70840 75731
L70812 75703
L70812 75759
" />
<path d="M71037 75899
L71346 75899
L71037 76293
L71346 76293
" />
<path d="M71796 76265
L71740 76293
L71628 76293
L71571 76265
L71543 76209
L71543 75984
L71571 75928
L71628 75899
L71740 75899
L71796 75928
L71825 75984
L71825 76040
L71543 76096
" />
<path d="M72078 76237
L72106 76265
L72078 76293
L72049 76265
L72078 76237
L72078 76293
" />
<path d="M72078 75928
L72106 75956
L72078 75984
L72049 75956
L72078 75928
L72078 75984
" />
<path d="M72781 76124
L73062 76124
" />
<path d="M72724 76293
L72921 75703
L73118 76293
" />
<path d="M73568 75899
L73568 76293
" />
<path d="M73427 75674
L73287 76096
L73652 76096
" />
</g><text x="103544.173228" y="77424.094488"
textLength="3350.196850" font-size="787.401575" lengthAdjust="spacingAndGlyphs"
text-anchor="start" opacity="0">Id: 1/1</text>
<g class="stroked-text"><desc>Id: 1/1</desc>
<path d="M103714 77395
L103714 76805
" />
<path d="M104249 77395
L104249 76805
" />
<path d="M104249 77367
L104192 77395
L104080 77395
L104024 77367
L103995 77339
L103967 77283
L103967 77114
L103995 77058
L104024 77030
L104080 77002
L104192 77002
L104249 77030
" />
<path d="M104530 77339
L104558 77367
L104530 77395
L104502 77367
L104530 77339
L104530 77395
" />
<path d="M104530 77030
L104558 77058
L104530 77086
L104502 77058
L104530 77030
L104530 77086
" />
<path d="M105570 77395
L105233 77395
" />
<path d="M105402 77395
L105402 76805
L105345 76889
L105289 76946
L105233 76974
" />
<path d="M106245 76777
L105739 77536
" />
<path d="M106751 77395
L106414 77395
" />
<path d="M106583 77395
L106583 76805
L106526 76889
L106470 76946
L106414 76974
" />
</g><path d="M69685 73821
L112205 73821
" />
</g>
<g style="fill:#840000; fill-opacity:0.0; 
stroke:#840000; stroke-width:157.480315; stroke-opacity:1; 
stroke-linecap:round; stroke-linejoin:round;">
<text x="70079.606299" y="74924.094488"
textLength="3705.511811" font-size="1049.842520" lengthAdjust="spacingAndGlyphs"
text-anchor="start" opacity="0">Title: </text>
<g class="stroked-text"><desc>Title: </desc>
<path d="M70360 74099
L70810 74099
" />
<path d="M70486 74886
L70585 74099
" />
<path d="M70974 74886
L71039 74361
" />
<path d="M71072 74099
L71030 74136
L71063 74174
L71105 74136
L71072 74099
L71063 74174
" />
<path d="M71302 74361
L71602 74361
" />
<path d="M71447 74099
L71363 74774
L71391 74849
L71461 74886
L71536 74886
" />
<path d="M71911 74886
L71841 74849
L71812 74774
L71897 74099
" />
<path d="M72516 74849
L72436 74886
L72286 74886
L72216 74849
L72187 74774
L72225 74474
L72272 74399
L72352 74361
L72501 74361
L72572 74399
L72600 74474
L72591 74549
L72206 74624
" />
<path d="M72895 74811
L72928 74849
L72886 74886
L72853 74849
L72895 74811
L72886 74886
" />
<path d="M72947 74399
L72980 74436
L72937 74474
L72905 74436
L72947 74399
L72937 74474
" />
</g></g>
<g style="fill:#840000; fill-opacity:0.0; 
stroke:#840000; stroke-width:60.000000; stroke-opacity:1; 
stroke-linecap:round; stroke-linejoin:round;">
<text x="70079.606299" y="73408.346457"
textLength="13731.141732" font-size="787.401575" lengthAdjust="spacingAndGlyphs"
text-anchor="start" opacity="0">File: morse_decoder.kicad_sch</text>
<g class="stroked-text"><desc>File: morse_decoder.kicad_sch</desc>
<path d="M70447 73070
L70250 73070
" />
<path d="M70250 73380
L70250 72789
L70531 72789
" />
<path d="M70756 73380
L70756 72986
" />
<path d="M70756 72789
L70728 72817
L70756 72845
L70784 72817
L70756 72789
L70756 72845
" />
<path d="M71121 73380
L71065 73352
L71037 73295
L71037 72789
" />
<path d="M71571 73352
L71515 73380
L71403 73380
L71346 73352
L71318 73295
L71318 73070
L71346 73014
L71403 72986
L71515 72986
L71571 73014
L71600 73070
L71600 73127
L71318 73183
" />
<path d="M71853 73323
L71881 73352
L71853 73380
L71825 73352
L71853 73323
L71853 73380
" />
<path d="M71853 73014
L71881 73042
L71853 73070
L71825 73042
L71853 73014
L71853 73070
" />
<path d="M72584 73380
L72584 72986
" />
<path d="M72584 73042
L72612 73014
L72668 72986
L72752 72986
L72809 73014
L72837 73070
L72837 73380
" />
<path d="M72837 73070
L72865 73014
L72921 72986
L73006 72986
L73062 73014
L73090 73070
L73090 73380
" />
<path d="M73456 73380
L73399 73352
L73371 73323
L73343 73267
L73343 73098
L73371 73042
L73399 73014
L73456 72986
L73540 72986
L73596 73014
L73624 73042
L73652 73098
L73652 73267
L73624 73323
L73596 73352
L73540 73380
L73456 73380
" />
<path d="M73905 73380
L73905 72986
" />
<path d="M73905 73098
L73934 73042
L73962 73014
L74018 72986
L74074 72986
" />
<path d="M74243 73352
L74299 73380
L74412 73380
L74468 73352
L74496 73295
L74496 73267
L74468 73211
L74412 73183
L74327 73183
L74271 73155
L74243 73098
L74243 73070
L74271 73014
L74327 72986
L74412 72986
L74468 73014
" />
<path d="M74974 73352
L74918 73380
L74805 73380
L74749 73352
L74721 73295
L74721 73070
L74749 73014
L74805 72986
L74918 72986
L74974 73014
L75002 73070
L75002 73127
L74721 73183
" />
<path d="M75115 73436
L75565 73436
" />
<path d="M75958 73380
L75958 72789
" />
<path d="M75958 73352
L75902 73380
L75790 73380
L75733 73352
L75705 73323
L75677 73267
L75677 73098
L75705 73042
L75733 73014
L75790 72986
L75902 72986
L75958 73014
" />
<path d="M76465 73352
L76408 73380
L76296 73380
L76240 73352
L76211 73295
L76211 73070
L76240 73014
L76296 72986
L76408 72986
L76465 73014
L76493 73070
L76493 73127
L76211 73183
" />
<path d="M76999 73352
L76943 73380
L76830 73380
L76774 73352
L76746 73323
L76718 73267
L76718 73098
L76746 73042
L76774 73014
L76830 72986
L76943 72986
L76999 73014
" />
<path d="M77336 73380
L77280 73352
L77252 73323
L77224 73267
L77224 73098
L77252 73042
L77280 73014
L77336 72986
L77421 72986
L77477 73014
L77505 73042
L77533 73098
L77533 73267
L77505 73323
L77477 73352
L77421 73380
L77336 73380
" />
<path d="M78039 73380
L78039 72789
" />
<path d="M78039 73352
L77983 73380
L77871 73380
L77814 73352
L77786 73323
L77758 73267
L77758 73098
L77786 73042
L77814 73014
L77871 72986
L77983 72986
L78039 73014
" />
<path d="M78546 73352
L78489 73380
L78377 73380
L78321 73352
L78292 73295
L78292 73070
L78321 73014
L78377 72986
L78489 72986
L78546 73014
L78574 73070
L78574 73127
L78292 73183
" />
<path d="M78827 73380
L78827 72986
" />
<path d="M78827 73098
L78855 73042
L78883 73014
L78939 72986
L78995 72986
" />
<path d="M79192 73323
L79220 73352
L79192 73380
L79164 73352
L79192 73323
L79192 73380
" />
<path d="M79474 73380
L79474 72789
" />
<path d="M79530 73155
L79699 73380
" />
<path d="M79699 72986
L79474 73211
" />
<path d="M79952 73380
L79952 72986
" />
<path d="M79952 72789
L79923 72817
L79952 72845
L79980 72817
L79952 72789
L79952 72845
" />
<path d="M80486 73352
L80430 73380
L80317 73380
L80261 73352
L80233 73323
L80205 73267
L80205 73098
L80233 73042
L80261 73014
L80317 72986
L80430 72986
L80486 73014
" />
<path d="M80992 73380
L80992 73070
L80964 73014
L80908 72986
L80795 72986
L80739 73014
" />
<path d="M80992 73352
L80936 73380
L80795 73380
L80739 73352
L80711 73295
L80711 73239
L80739 73183
L80795 73155
L80936 73155
L80992 73127
" />
<path d="M81526 73380
L81526 72789
" />
<path d="M81526 73352
L81470 73380
L81358 73380
L81301 73352
L81273 73323
L81245 73267
L81245 73098
L81273 73042
L81301 73014
L81358 72986
L81470 72986
L81526 73014
" />
<path d="M81667 73436
L82117 73436
" />
<path d="M82229 73352
L82286 73380
L82398 73380
L82454 73352
L82483 73295
L82483 73267
L82454 73211
L82398 73183
L82314 73183
L82258 73155
L82229 73098
L82229 73070
L82258 73014
L82314 72986
L82398 72986
L82454 73014
" />
<path d="M82989 73352
L82932 73380
L82820 73380
L82764 73352
L82736 73323
L82708 73267
L82708 73098
L82736 73042
L82764 73014
L82820 72986
L82932 72986
L82989 73014
" />
<path d="M83242 73380
L83242 72789
" />
<path d="M83495 73380
L83495 73070
L83467 73014
L83411 72986
L83326 72986
L83270 73014
L83242 73042
" />
</g><path d="M69685 71459
L112205 71459
" />
<text x="70079.606299" y="72345.354331"
textLength="3856.417323" font-size="787.401575" lengthAdjust="spacingAndGlyphs"
text-anchor="start" opacity="0">Sheet: /</text>
<g class="stroked-text"><desc>Sheet: /</desc>
<path d="M70222 72289
L70306 72317
L70447 72317
L70503 72289
L70531 72260
L70559 72204
L70559 72148
L70531 72092
L70503 72064
L70447 72035
L70334 72007
L70278 71979
L70250 71951
L70222 71895
L70222 71839
L70250 71782
L70278 71754
L70334 71726
L70475 71726
L70559 71754
" />
<path d="M70812 72317
L70812 71726
" />
<path d="M71065 72317
L71065 72007
L71037 71951
L70981 71923
L70897 71923
L70840 71951
L70812 71979
" />
<path d="M71571 72289
L71515 72317
L71403 72317
L71346 72289
L71318 72232
L71318 72007
L71346 71951
L71403 71923
L71515 71923
L71571 71951
L71600 72007
L71600 72064
L71318 72120
" />
<path d="M72078 72289
L72021 72317
L71909 72317
L71853 72289
L71825 72232
L71825 72007
L71853 71951
L71909 71923
L72021 71923
L72078 71951
L72106 72007
L72106 72064
L71825 72120
" />
<path d="M72274 71923
L72499 71923
" />
<path d="M72359 71726
L72359 72232
L72387 72289
L72443 72317
L72499 72317
" />
<path d="M72696 72260
L72724 72289
L72696 72317
L72668 72289
L72696 72260
L72696 72317
" />
<path d="M72696 71951
L72724 71979
L72696 72007
L72668 71979
L72696 71951
L72696 72007
" />
<path d="M73849 71698
L73343 72457
" />
</g></g>
<g style="fill:#840000; fill-opacity:0.0; 
stroke:#840000; stroke-width:118.110236; stroke-opacity:1; 
stroke-linecap:round; stroke-linejoin:round;">
<text x="70079.606299" y="71164.251969"
textLength="60.000000" font-size="787.401575" lengthAdjust="spacingAndGlyphs"
text-anchor="start" opacity="0"></text>
<g class="stroked-text"><desc></desc>
</g></g>
<g style="fill:#840000; fill-opacity:0.0; 
stroke:#840000; stroke-width:60.000000; stroke-opacity:1; 
stroke-linecap:round; stroke-linejoin:round;">
<text x="70079.606299" y="69983.149606"
textLength="118.110236" font-size="787.401575" lengthAdjust="spacingAndGlyphs"
text-anchor="start" opacity="0"></text>
<g class="stroked-text"><desc></desc>
</g><text x="70079.606299" y="68802.047244"
textLength="60.000000" font-size="787.401575" lengthAdjust="spacingAndGlyphs"
text-anchor="start" opacity="0"></text>
<g class="stroked-text"><desc></desc>
</g><text x="70079.606299" y="67620.944882"
textLength="60.000000" font-size="787.401575" lengthAdjust="spacingAndGlyphs"
text-anchor="start" opacity="0"></text>
<g class="stroked-text"><desc></desc>
</g><text x="70079.606299" y="66439.842520"
textLength="60.000000" font-size="787.401575" lengthAdjust="spacingAndGlyphs"
text-anchor="start" opacity="0"></text>
<g class="stroked-text"><desc></desc>
</g><path d="M77559 75396
L77559 76577
" />
<path d="M102756 75396
L102756 77955
" />
<g >
</g>
<g style="fill:#FFFFC2; fill-opacity:0.0; 
stroke:#FFFFC2; stroke-width:60.000000; stroke-opacity:1; 
stroke-linecap:round; stroke-linejoin:round;">
</g>
<g style="fill:#FFFFC2; fill-opacity:0.6; 
stroke:#FFFFC2; stroke-width:0.039370; stroke-opacity:1; 
stroke-linecap:round; stroke-linejoin:round;">
<rect x="28500.000000" y="30500.000000" width="10000.000000" height="10000.000000" rx="0.000000" />
</g>
<g style="fill:#840000; fill-opacity:0.6; 
stroke:#840000; stroke-width:0.039370; stroke-opacity:1; 
stroke-linecap:round; stroke-linejoin:round;">
</g>
<g style="fill:#840000; fill-opacity:0.0; 
stroke:#840000; stroke-width:100.000000; stroke-opacity:1; 
stroke-linecap:round; stroke-linejoin:round;">
<rect x="28500.000000" y="30500.000000" width="10000.000000" height="10000.000000" rx="0.000000" />
<rect x="28500.000000" y="30500.000000" width="10000.000000" height="10000.000000" rx="0.000000" />
</g>
<g style="fill:#840000; fill-opacity:0.0; 
stroke:#840000; stroke-width:60.000000; stroke-opacity:1; 
stroke-linecap:round; stroke-linejoin:round;">
<path d="M38500 37500
L39500 37500
" />
</g>
<g style="fill:#006464; fill-opacity:0.0; 
stroke:#006464; stroke-width:60.000000; stroke-opacity:1; 
stroke-linecap:round; stroke-linejoin:round;">
<text x="38300.000000" y="37750.000000"
textLength="4321.889764" font-size="666.653543" lengthAdjust="spacingAndGlyphs"
text-anchor="end" opacity="0">~{RESET}/PB5</text>
<g class="stroked-text"><desc>~{RESET}/PB5</desc>
<path d="M34008 37085
L34508 37085
" />
<path d="M34412 37726
L34246 37488
" />
<path d="M34127 37726
L34127 37226
L34317 37226
L34365 37250
L34389 37273
L34412 37321
L34412 37392
L34389 37440
L34365 37464
L34317 37488
L34127 37488
" />
<path d="M34508 37085
L34960 37085
" />
<path d="M34627 37464
L34793 37464
" />
<path d="M34865 37726
L34627 37726
L34627 37226
L34865 37226
" />
<path d="M34960 37085
L35436 37085
" />
<path d="M35055 37702
L35127 37726
L35246 37726
L35293 37702
L35317 37678
L35341 37630
L35341 37583
L35317 37535
L35293 37511
L35246 37488
L35150 37464
L35103 37440
L35079 37416
L35055 37369
L35055 37321
L35079 37273
L35103 37250
L35150 37226
L35270 37226
L35341 37250
" />
<path d="M35436 37085
L35889 37085
" />
<path d="M35555 37464
L35722 37464
" />
<path d="M35793 37726
L35555 37726
L35555 37226
L35793 37226
" />
<path d="M35889 37085
L36270 37085
" />
<path d="M35936 37226
L36222 37226
" />
<path d="M36079 37726
L36079 37226
" />
<path d="M36746 37202
L36317 37845
" />
<path d="M36912 37726
L36912 37226
L37103 37226
L37150 37250
L37174 37273
L37198 37321
L37198 37392
L37174 37440
L37150 37464
L37103 37488
L36912 37488
" />
<path d="M37579 37464
L37650 37488
L37674 37511
L37698 37559
L37698 37630
L37674 37678
L37650 37702
L37603 37726
L37412 37726
L37412 37226
L37579 37226
L37627 37250
L37650 37273
L37674 37321
L37674 37369
L37650 37416
L37627 37440
L37579 37464
L37412 37464
" />
<path d="M38150 37226
L37912 37226
L37889 37464
L37912 37440
L37960 37416
L38079 37416
L38127 37440
L38150 37464
L38174 37511
L38174 37630
L38150 37678
L38127 37702
L38079 37726
L37960 37726
L37912 37702
L37889 37678
" />
</g></g>
<g style="fill:#A90000; fill-opacity:0.0; 
stroke:#A90000; stroke-width:60.000000; stroke-opacity:1; 
stroke-linecap:round; stroke-linejoin:round;">
<text x="39000.000000" y="37400.000000"
textLength="536.181102" font-size="666.653543" lengthAdjust="spacingAndGlyphs"
text-anchor="middle" opacity="0">1</text>
<g class="stroked-text"><desc>1</desc>
<path d="M39142 37376
L38857 37376
" />
<path d="M39000 37376
L39000 36876
L38952 36947
L38904 36995
L38857 37019
" />
</g></g>
<g style="fill:#840000; fill-opacity:0.0; 
stroke:#840000; stroke-width:60.000000; stroke-opacity:1; 
stroke-linecap:round; stroke-linejoin:round;">
<path d="M38500 35500
L39500 35500
" />
</g>
<g style="fill:#006464; fill-opacity:0.0; 
stroke:#006464; stroke-width:60.000000; stroke-opacity:1; 
stroke-linecap:round; stroke-linejoin:round;">
<text x="38300.000000" y="35750.000000"
textLength="4226.653543" font-size="666.653543" lengthAdjust="spacingAndGlyphs"
text-anchor="end" opacity="0">XTAL1/PB3</text>
<g class="stroked-text"><desc>XTAL1/PB3</desc>
<path d="M34174 35226
L34508 35726
" />
<path d="M34508 35226
L34174 35726
" />
<path d="M34627 35226
L34912 35226
" />
<path d="M34770 35726
L34770 35226
" />
<path d="M35055 35583
L35293 35583
" />
<path d="M35008 35726
L35174 35226
L35341 35726
" />
<path d="M35746 35726
L35508 35726
L35508 35226
" />
<path d="M36174 35726
L35889 35726
" />
<path d="M36031 35726
L36031 35226
L35984 35297
L35936 35345
L35889 35369
" />
<path d="M36746 35202
L36317 35845
" />
<path d="M36912 35726
L36912 35226
L37103 35226
L37150 35250
L37174 35273
L37198 35321
L37198 35392
L37174 35440
L37150 35464
L37103 35488
L36912 35488
" />
<path d="M37579 35464
L37650 35488
L37674 35511
L37698 35559
L37698 35630
L37674 35678
L37650 35702
L37603 35726
L37412 35726
L37412 35226
L37579 35226
L37627 35250
L37650 35273
L37674 35321
L37674 35369
L37650 35416
L37627 35440
L37579 35464
L37412 35464
" />
<path d="M37865 35226
L38174 35226
L38008 35416
L38079 35416
L38127 35440
L38150 35464
L38174 35511
L38174 35630
L38150 35678
L38127 35702
L38079 35726
L37936 35726
L37889 35702
L37865 35678
" />
</g></g>
<g style="fill:#A90000; fill-opacity:0.0; 
stroke:#A90000; stroke-width:60.000000; stroke-opacity:1; 
stroke-linecap:round; stroke-linejoin:round;">
<text x="39000.000000" y="35400.000000"
textLength="536.181102" font-size="666.653543" lengthAdjust="spacingAndGlyphs"
text-anchor="middle" opacity="0">2</text>
<g class="stroked-text"><desc>2</desc>
<path d="M38857 34923
L38880 34900
L38928 34876
L39047 34876
L39095 34900
L39119 34923
L39142 34971
L39142 35019
L39119 35090
L38833 35376
L39142 35376
" />
</g></g>
<g style="fill:#840000; fill-opacity:0.0; 
stroke:#840000; stroke-width:60.000000; stroke-opacity:1; 
stroke-linecap:round; stroke-linejoin:round;">
<path d="M38500 36500
L39500 36500
" />
</g>
<g style="fill:#006464; fill-opacity:0.0; 
stroke:#006464; stroke-width:60.000000; stroke-opacity:1; 
stroke-linecap:round; stroke-linejoin:round;">
<text x="38300.000000" y="36750.000000"
textLength="4226.653543" font-size="666.653543" lengthAdjust="spacingAndGlyphs"
text-anchor="end" opacity="0">XTAL2/PB4</text>
<g class="stroked-text"><desc>XTAL2/PB4</desc>
<path d="M34174 36226
L34508 36726
" />
<path d="M34508 36226
L34174 36726
" />
<path d="M34627 36226
L34912 36226
" />
<path d="M34770 36726
L34770 36226
" />
<path d="M35055 36583
L35293 36583
" />
<path d="M35008 36726
L35174 36226
L35341 36726
" />
<path d="M35746 36726
L35508 36726
L35508 36226
" />
<path d="M35889 36273
L35912 36250
L35960 36226
L36079 36226
L36127 36250
L36150 36273
L36174 36321
L36174 36369
L36150 36440
L35865 36726
L36174 36726
" />
<path d="M36746 36202
L36317 36845
" />
<path d="M36912 36726
L36912 36226
L37103 36226
L37150 36250
L37174 36273
L37198 36321
L37198 36392
L37174 36440
L37150 36464
L37103 36488
L36912 36488
" />
<path d="M37579 36464
L37650 36488
L37674 36511
L37698 36559
L37698 36630
L37674 36678
L37650 36702
L37603 36726
L37412 36726
L37412 36226
L37579 36226
L37627 36250
L37650 36273
L37674 36321
L37674 36369
L37650 36416
L37627 36440
L37579 36464
L37412 36464
" />
<path d="M38127 36392
L38127 36726
" />
<path d="M38008 36202
L37889 36559
L38198 36559
" />
</g></g>
<g style="fill:#A90000; fill-opacity:0.0; 
stroke:#A90000; stroke-width:60.000000; stroke-opacity:1; 
stroke-linecap:round; stroke-linejoin:round;">
<text x="39000.000000" y="36400.000000"
textLength="536.181102" font-size="666.653543" lengthAdjust="spacingAndGlyphs"
text-anchor="middle" opacity="0">3</text>
<g class="stroked-text"><desc>3</desc>
<path d="M38833 35876
L39142 35876
L38976 36066
L39047 36066
L39095 36090
L39119 36114
L39142 36161
L39142 36280
L39119 36328
L39095 36352
L39047 36376
L38904 36376
L38857 36352
L38833 36328
" />
</g></g>
<g style="fill:#840000; fill-opacity:0.0; 
stroke:#840000; stroke-width:60.000000; stroke-opacity:1; 
stroke-linecap:round; stroke-linejoin:round;">
<path d="M33500 40500
L33500 41500
" />
</g>
<g style="fill:#006464; fill-opacity:0.0; 
stroke:#006464; stroke-width:60.000000; stroke-opacity:1; 
stroke-linecap:round; stroke-linejoin:round;">
<g transform="rotate(-90.000000 33500.000000 40300.000000)">
<text x="33500.000000" y="40550.000000"
textLength="1583.818898" font-size="666.653543" lengthAdjust="spacingAndGlyphs"
text-anchor="start" opacity="0">GND</text>
</g>
<g class="stroked-text"><desc>GND</desc>
<path d="M33250 39889
L33226 39936
L33226 40008
L33250 40079
L33297 40127
L33345 40150
L33440 40174
L33511 40174
L33607 40150
L33654 40127
L33702 40079
L33726 40008
L33726 39960
L33702 39889
L33678 39865
L33511 39865
L33511 39960
" />
<path d="M33726 39650
L33226 39650
L33726 39365
L33226 39365
" />
<path d="M33726 39127
L33226 39127
L33226 39008
L33250 38936
L33297 38889
L33345 38865
L33440 38841
L33511 38841
L33607 38865
L33654 38889
L33702 38936
L33726 39008
L33726 39127
" />
</g></g>
<g style="fill:#A90000; fill-opacity:0.0; 
stroke:#A90000; stroke-width:60.000000; stroke-opacity:1; 
stroke-linecap:round; stroke-linejoin:round;">
<g transform="rotate(-90.000000 33400.000000 41000.000000)">
<text x="33400.000000" y="41000.000000"
textLength="536.181102" font-size="666.653543" lengthAdjust="spacingAndGlyphs"
text-anchor="middle" opacity="0">4</text>
</g>
<g class="stroked-text"><desc>4</desc>
<path d="M33042 40904
L33376 40904
" />
<path d="M32852 41023
L33209 41142
L33209 40833
" />
</g></g>
<g style="fill:#840000; fill-opacity:0.0; 
stroke:#840000; stroke-width:60.000000; stroke-opacity:1; 
stroke-linecap:round; stroke-linejoin:round;">
<path d="M38500 32500
L39500 32500
" />
</g>
<g style="fill:#006464; fill-opacity:0.0; 
stroke:#006464; stroke-width:60.000000; stroke-opacity:1; 
stroke-linecap:round; stroke-linejoin:round;">
<text x="38300.000000" y="32750.000000"
textLength="3869.527559" font-size="666.653543" lengthAdjust="spacingAndGlyphs"
text-anchor="end" opacity="0">AREF/PB0</text>
<g class="stroked-text"><desc>AREF/PB0</desc>
<path d="M34555 32583
L34793 32583
" />
<path d="M34508 32726
L34674 32226
L34841 32726
" />
<path d="M35293 32726
L35127 32488
" />
<path d="M35008 32726
L35008 32226
L35198 32226
L35246 32250
L35270 32273
L35293 32321
L35293 32392
L35270 32440
L35246 32464
L35198 32488
L35008 32488
" />
<path d="M35508 32464
L35674 32464
" />
<path d="M35746 32726
L35508 32726
L35508 32226
L35746 32226
" />
<path d="M36127 32464
L35960 32464
" />
<path d="M35960 32726
L35960 32226
L36198 32226
" />
<path d="M36746 32202
L36317 32845
" />
<path d="M36912 32726
L36912 32226
L37103 32226
L37150 32250
L37174 32273
L37198 32321
L37198 32392
L37174 32440
L37150 32464
L37103 32488
L36912 32488
" />
<path d="M37579 32464
L37650 32488
L37674 32511
L37698 32559
L37698 32630
L37674 32678
L37650 32702
L37603 32726
L37412 32726
L37412 32226
L37579 32226
L37627 32250
L37650 32273
L37674 32321
L37674 32369
L37650 32416
L37627 32440
L37579 32464
L37412 32464
" />
<path d="M38008 32226
L38055 32226
L38103 32250
L38127 32273
L38150 32321
L38174 32416
L38174 32535
L38150 32630
L38127 32678
L38103 32702
L38055 32726
L38008 32726
L37960 32702
L37936 32678
L37912 32630
L37889 32535
L37889 32416
L37912 32321
L37936 32273
L37960 32250
L38008 32226
" />
</g></g>
<g style="fill:#A90000; fill-opacity:0.0; 
stroke:#A90000; stroke-width:60.000000; stroke-opacity:1; 
stroke-linecap:round; stroke-linejoin:round;">
<text x="39000.000000" y="32400.000000"
textLength="536.181102" font-size="666.653543" lengthAdjust="spacingAndGlyphs"
text-anchor="middle" opacity="0">5</text>
<g class="stroked-text"><desc>5</desc>
<path d="M39119 31876
L38880 31876
L38857 32114
L38880 32090
L38928 32066
L39047 32066
L39095 32090
L39119 32114
L39142 32161
L39142 32280
L39119 32328
L39095 32352
L39047 32376
L38928 32376
L38880 32352
L38857 32328
" />
</g></g>
<g style="fill:#840000; fill-opacity:0.0; 
stroke:#840000; stroke-width:60.000000; stroke-opacity:1; 
stroke-linecap:round; stroke-linejoin:round;">
<path d="M38500 33500
L39500 33500
" />
</g>
<g style="fill:#006464; fill-opacity:0.0; 
stroke:#006464; stroke-width:60.000000; stroke-opacity:1; 
stroke-linecap:round; stroke-linejoin:round;">
<text x="38300.000000" y="33750.000000"
textLength="1536.181102" font-size="666.653543" lengthAdjust="spacingAndGlyphs"
text-anchor="end" opacity="0">PB1</text>
<g class="stroked-text"><desc>PB1</desc>
<path d="M36912 33726
L36912 33226
L37103 33226
L37150 33250
L37174 33273
L37198 33321
L37198 33392
L37174 33440
L37150 33464
L37103 33488
L36912 33488
" />
<path d="M37579 33464
L37650 33488
L37674 33511
L37698 33559
L37698 33630
L37674 33678
L37650 33702
L37603 33726
L37412 33726
L37412 33226
L37579 33226
L37627 33250
L37650 33273
L37674 33321
L37674 33369
L37650 33416
L37627 33440
L37579 33464
L37412 33464
" />
<path d="M38174 33726
L37889 33726
" />
<path d="M38031 33726
L38031 33226
L37984 33297
L37936 33345
L37889 33369
" />
</g></g>
<g style="fill:#A90000; fill-opacity:0.0; 
stroke:#A90000; stroke-width:60.000000; stroke-opacity:1; 
stroke-linecap:round; stroke-linejoin:round;">
<text x="39000.000000" y="33400.000000"
textLength="536.181102" font-size="666.653543" lengthAdjust="spacingAndGlyphs"
text-anchor="middle" opacity="0">6</text>
<g class="stroked-text"><desc>6</desc>
<path d="M39095 32876
L39000 32876
L38952 32900
L38928 32923
L38880 32995
L38857 33090
L38857 33280
L38880 33328
L38904 33352
L38952 33376
L39047 33376
L39095 33352
L39119 33328
L39142 33280
L39142 33161
L39119 33114
L39095 33090
L39047 33066
L38952 33066
L38904 33090
L38880 33114
L38857 33161
" />
</g></g>
<g style="fill:#840000; fill-opacity:0.0; 
stroke:#840000; stroke-width:60.000000; stroke-opacity:1; 
stroke-linecap:round; stroke-linejoin:round;">
<path d="M38500 34500
L39500 34500
" />
</g>
<g style="fill:#006464; fill-opacity:0.0; 
stroke:#006464; stroke-width:60.000000; stroke-opacity:1; 
stroke-linecap:round; stroke-linejoin:round;">
<text x="38300.000000" y="34750.000000"
textLength="1536.181102" font-size="666.653543" lengthAdjust="spacingAndGlyphs"
text-anchor="end" opacity="0">PB2</text>
<g class="stroked-text"><desc>PB2</desc>
<path d="M36912 34726
L36912 34226
L37103 34226
L37150 34250
L37174 34273
L37198 34321
L37198 34392
L37174 34440
L37150 34464
L37103 34488
L36912 34488
" />
<path d="M37579 34464
L37650 34488
L37674 34511
L37698 34559
L37698 34630
L37674 34678
L37650 34702
L37603 34726
L37412 34726
L37412 34226
L37579 34226
L37627 34250
L37650 34273
L37674 34321
L37674 34369
L37650 34416
L37627 34440
L37579 34464
L37412 34464
" />
<path d="M37889 34273
L37912 34250
L37960 34226
L38079 34226
L38127 34250
L38150 34273
L38174 34321
L38174 34369
L38150 34440
L37865 34726
L38174 34726
" />
</g></g>
<g style="fill:#A90000; fill-opacity:0.0; 
stroke:#A90000; stroke-width:60.000000; stroke-opacity:1; 
stroke-linecap:round; stroke-linejoin:round;">
<text x="39000.000000" y="34400.000000"
textLength="536.181102" font-size="666.653543" lengthAdjust="spacingAndGlyphs"
text-anchor="middle" opacity="0">7</text>
<g class="stroked-text"><desc>7</desc>
<path d="M38833 33876
L39166 33876
L38952 34376
" />
</g></g>
<g style="fill:#840000; fill-opacity:0.0; 
stroke:#840000; stroke-width:60.000000; stroke-opacity:1; 
stroke-linecap:round; stroke-linejoin:round;">
<path d="M33500 30500
L33500 29500
" />
</g>
<g style="fill:#006464; fill-opacity:0.0; 
stroke:#006464; stroke-width:60.000000; stroke-opacity:1; 
stroke-linecap:round; stroke-linejoin:round;">
<g transform="rotate(-90.000000 33500.000000 30700.000000)">
<text x="33500.000000" y="30950.000000"
textLength="1488.582677" font-size="666.653543" lengthAdjust="spacingAndGlyphs"
text-anchor="end" opacity="0">VCC</text>
</g>
<g class="stroked-text"><desc>VCC</desc>
<path d="M33226 32110
L33726 31944
L33226 31777
" />
<path d="M33678 31325
L33702 31349
L33726 31420
L33726 31468
L33702 31539
L33654 31587
L33607 31610
L33511 31634
L33440 31634
L33345 31610
L33297 31587
L33250 31539
L33226 31468
L33226 31420
L33250 31349
L33273 31325
" />
<path d="M33678 30825
L33702 30849
L33726 30920
L33726 30968
L33702 31039
L33654 31087
L33607 31110
L33511 31134
L33440 31134
L33345 31110
L33297 31087
L33250 31039
L33226 30968
L33226 30920
L33250 30849
L33273 30825
" />
</g></g>
<g style="fill:#A90000; fill-opacity:0.0; 
stroke:#A90000; stroke-width:60.000000; stroke-opacity:1; 
stroke-linecap:round; stroke-linejoin:round;">
<g transform="rotate(-90.000000 33400.000000 30000.000000)">
<text x="33400.000000" y="30000.000000"
textLength="536.181102" font-size="666.653543" lengthAdjust="spacingAndGlyphs"
text-anchor="middle" opacity="0">8</text>
</g>
<g class="stroked-text"><desc>8</desc>
<path d="M33090 30047
L33066 30095
L33042 30119
L32995 30142
L32971 30142
L32923 30119
L32900 30095
L32876 30047
L32876 29952
L32900 29904
L32923 29880
L32971 29857
L32995 29857
L33042 29880
L33066 29904
L33090 29952
L33090 30047
L33114 30095
L33138 30119
L33185 30142
L33280 30142
L33328 30119
L33352 30095
L33376 30047
L33376 29952
L33352 29904
L33328 29880
L33280 29857
L33185 29857
L33138 29880
L33114 29904
L33090 29952
" />
</g></g>
<g style="fill:#006464; fill-opacity:0.0; 
stroke:#006464; stroke-width:60.000000; stroke-opacity:1; 
stroke-linecap:round; stroke-linejoin:round;">
<text x="27468.740157" y="35249.921260"
textLength="1060.000000" font-size="666.653543" lengthAdjust="spacingAndGlyphs"
text-anchor="middle" opacity="0">U1</text>
<g class="stroked-text"><desc>U1</desc>
<path d="M27087 34726
L27087 35130
L27111 35178
L27135 35202
L27182 35226
L27278 35226
L27325 35202
L27349 35178
L27373 35130
L27373 34726
" />
<path d="M27873 35226
L27587 35226
" />
<path d="M27730 35226
L27730 34726
L27682 34797
L27635 34845
L27587 34868
" />
</g><text x="25373.503937" y="36249.921260"
textLength="5250.472441" font-size="666.653543" lengthAdjust="spacingAndGlyphs"
text-anchor="middle" opacity="0">ATtiny85-20P</text>
<g class="stroked-text"><desc>ATtiny85-20P</desc>
<path d="M22873 36083
L23111 36083
" />
<path d="M22825 36226
L22992 35726
L23159 36226
" />
<path d="M23254 35726
L23540 35726
" />
<path d="M23397 36226
L23397 35726
" />
<path d="M23635 35892
L23825 35892
" />
<path d="M23706 35726
L23706 36154
L23730 36202
L23778 36226
L23825 36226
" />
<path d="M23992 36226
L23992 35892
" />
<path d="M23992 35726
L23968 35749
L23992 35773
L24016 35749
L23992 35726
L23992 35773
" />
<path d="M24230 35892
L24230 36226
" />
<path d="M24230 35940
L24254 35916
L24302 35892
L24373 35892
L24421 35916
L24444 35964
L24444 36226
" />
<path d="M24635 35892
L24754 36226
" />
<path d="M24873 35892
L24754 36226
L24706 36345
L24682 36368
L24635 36392
" />
<path d="M25135 35940
L25087 35916
L25063 35892
L25040 35845
L25040 35821
L25063 35773
L25087 35749
L25135 35726
L25230 35726
L25278 35749
L25302 35773
L25325 35821
L25325 35845
L25302 35892
L25278 35916
L25230 35940
L25135 35940
L25087 35964
L25063 35987
L25040 36035
L25040 36130
L25063 36178
L25087 36202
L25135 36226
L25230 36226
L25278 36202
L25302 36178
L25325 36130
L25325 36035
L25302 35987
L25278 35964
L25230 35940
" />
<path d="M25778 35726
L25540 35726
L25516 35964
L25540 35940
L25587 35916
L25706 35916
L25754 35940
L25778 35964
L25802 36011
L25802 36130
L25778 36178
L25754 36202
L25706 36226
L25587 36226
L25540 36202
L25516 36178
" />
<path d="M26016 36035
L26397 36035
" />
<path d="M26611 35773
L26635 35749
L26682 35726
L26802 35726
L26849 35749
L26873 35773
L26897 35821
L26897 35868
L26873 35940
L26587 36226
L26897 36226
" />
<path d="M27206 35726
L27254 35726
L27302 35749
L27325 35773
L27349 35821
L27373 35916
L27373 36035
L27349 36130
L27325 36178
L27302 36202
L27254 36226
L27206 36226
L27159 36202
L27135 36178
L27111 36130
L27087 36035
L27087 35916
L27111 35821
L27135 35773
L27159 35749
L27206 35726
" />
<path d="M27587 36226
L27587 35726
L27778 35726
L27825 35749
L27849 35773
L27873 35821
L27873 35892
L27849 35940
L27825 35964
L27778 35987
L27587 35987
" />
</g></g>
</g>
<g style="fill:#006464; fill-opacity:0.0; 
stroke:#006464; stroke-width:60.000000; stroke-opacity:1; 
stroke-linecap:round; stroke-linejoin:round;">
<g >
</g>
<g style="fill:#840000; fill-opacity:0.0; 
stroke:#840000; stroke-width:60.000000; stroke-opacity:1; 
stroke-linecap:round; stroke-linejoin:round;">
<path style="fill:#840000; fill-opacity:0.0; 
stroke:#840000; stroke-width:60.000000; stroke-opacity:1; 
stroke-linecap:round; stroke-linejoin:round;fill:none"
d="M 33500.000000,44500.000000
33500.000000,45000.000000
34000.000000,45000.000000
33500.000000,45500.000000
33000.000000,45000.000000
33500.000000,45000.000000
" /> 
</g>
<g style="fill:#006464; fill-opacity:0.0; 
stroke:#006464; stroke-width:60.000000; stroke-opacity:1; 
stroke-linecap:round; stroke-linejoin:round;">
<text x="33500.000000" y="46749.960630"
textLength="1583.818898" font-size="666.653543" lengthAdjust="spacingAndGlyphs"
text-anchor="middle" opacity="0">GND</text>
<g class="stroked-text"><desc>GND</desc>
<path d="M33119 46249
L33071 46226
L33000 46226
L32928 46249
L32880 46297
L32857 46345
L32833 46440
L32833 46511
L32857 46607
L32880 46654
L32928 46702
L33000 46726
L33047 46726
L33119 46702
L33142 46678
L33142 46511
L33047 46511
" />
<path d="M33357 46726
L33357 46226
L33642 46726
L33642 46226
" />
<path d="M33880 46726
L33880 46226
L34000 46226
L34071 46249
L34119 46297
L34142 46345
L34166 46440
L34166 46511
L34142 46607
L34119 46654
L34071 46702
L34000 46726
L33880 46726
" />
</g></g>
</g>
<g style="fill:#006464; fill-opacity:0.0; 
stroke:#006464; stroke-width:60.000000; stroke-opacity:1; 
stroke-linecap:round; stroke-linejoin:round;">
<g >
</g>
<g style="fill:#840000; fill-opacity:0.0; 
stroke:#840000; stroke-width:60.000000; stroke-opacity:1; 
stroke-linecap:round; stroke-linejoin:round;">
<path style="fill:#840000; fill-opacity:0.0; 
stroke:#840000; stroke-width:60.000000; stroke-opacity:1; 
stroke-linecap:round; stroke-linejoin:round;fill:none"
d="M 3200.000000,8500.000000
3500.000000,8000.000000
" /> 
<path style="fill:#840000; fill-opacity:0.0; 
stroke:#840000; stroke-width:60.000000; stroke-opacity:1; 
stroke-linecap:round; stroke-linejoin:round;fill:none"
d="M 3500.000000,9000.000000
3500.000000,8000.000000
" /> 
<path style="fill:#840000; fill-opacity:0.0; 
stroke:#840000; stroke-width:60.000000; stroke-opacity:1; 
stroke-linecap:round; stroke-linejoin:round;fill:none"
d="M 3500.000000,8000.000000
3800.000000,8500.000000
" /> 
</g>
<g style="fill:#006464; fill-opacity:0.0; 
stroke:#006464; stroke-width:60.000000; stroke-opacity:1; 
stroke-linecap:round; stroke-linejoin:round;">
<text x="3500.000000" y="7249.960630"
textLength="1583.818898" font-size="666.653543" lengthAdjust="spacingAndGlyphs"
text-anchor="middle" opacity="0">+5V</text>
<g class="stroked-text"><desc>+5V</desc>
<path d="M2857 7035
L3238 7035
" />
<path d="M3047 7226
L3047 6845
" />
<path d="M3714 6726
L3476 6726
L3452 6964
L3476 6940
L3523 6916
L3642 6916
L3690 6940
L3714 6964
L3738 7011
L3738 7130
L3714 7178
L3690 7202
L3642 7226
L3523 7226
L3476 7202
L3452 7178
" />
<path d="M3880 6726
L4047 7226
L4214 6726
" />
</g></g>
</g>
<g style="fill:#006464; fill-opacity:0.0; 
stroke:#006464; stroke-width:60.000000; stroke-opacity:1; 
stroke-linecap:round; stroke-linejoin:round;">
<g >
</g>
<g style="fill:#840000; fill-opacity:0.0; 
stroke:#840000; stroke-width:60.000000; stroke-opacity:1; 
stroke-linecap:round; stroke-linejoin:round;">
<path style="fill:#840000; fill-opacity:0.0; 
stroke:#840000; stroke-width:60.000000; stroke-opacity:1; 
stroke-linecap:round; stroke-linejoin:round;fill:none"
d="M 33200.000000,22000.000000
33500.000000,21500.000000
" /> 
<path style="fill:#840000; fill-opacity:0.0; 
stroke:#840000; stroke-width:60.000000; stroke-opacity:1; 
stroke-linecap:round; stroke-linejoin:round;fill:none"
d="M 33500.000000,22500.000000
33500.000000,21500.000000
" /> 
<path style="fill:#840000; fill-opacity:0.0; 
stroke:#840000; stroke-width:60.000000; stroke-opacity:1; 
stroke-linecap:round; stroke-linejoin:round;fill:none"
d="M 33500.000000,21500.000000
33800.000000,22000.000000
" /> 
</g>
<g style="fill:#006464; fill-opacity:0.0; 
stroke:#006464; stroke-width:60.000000; stroke-opacity:1; 
stroke-linecap:round; stroke-linejoin:round;">
<text x="33500.000000" y="20749.960630"
textLength="1583.818898" font-size="666.653543" lengthAdjust="spacingAndGlyphs"
text-anchor="middle" opacity="0">+5V</text>
<g class="stroked-text"><desc>+5V</desc>
<path d="M32857 20535
L33238 20535
" />
<path d="M33047 20726
L33047 20345
" />
<path d="M33714 20226
L33476 20226
L33452 20464
L33476 20440
L33523 20416
L33642 20416
L33690 20440
L33714 20464
L33738 20511
L33738 20630
L33714 20678
L33690 20702
L33642 20726
L33523 20726
L33476 20702
L33452 20678
" />
<path d="M33880 20226
L34047 20726
L34214 20226
" />
</g></g>
</g>
<g style="fill:#006464; fill-opacity:0.0; 
stroke:#006464; stroke-width:60.000000; stroke-opacity:1; 
stroke-linecap:round; stroke-linejoin:round;">
<g >
</g>
<g style="fill:#840000; fill-opacity:0.0; 
stroke:#840000; stroke-width:60.000000; stroke-opacity:1; 
stroke-linecap:round; stroke-linejoin:round;">
</g>
<g style="fill:#840000; fill-opacity:0.0; 
stroke:#840000; stroke-width:200.000000; stroke-opacity:1; 
stroke-linecap:round; stroke-linejoin:round;">
<path style="fill:#840000; fill-opacity:0.0; 
stroke:#840000; stroke-width:200.000000; stroke-opacity:1; 
stroke-linecap:round; stroke-linejoin:round;fill:none"
d="M 50200.000000,37300.000000
51800.000000,37300.000000
" /> 
<path style="fill:#840000; fill-opacity:0.0; 
stroke:#840000; stroke-width:200.000000; stroke-opacity:1; 
stroke-linecap:round; stroke-linejoin:round;fill:none"
d="M 50200.000000,36700.000000
51800.000000,36700.000000
" /> 
</g>
<g style="fill:#840000; fill-opacity:0.0; 
stroke:#840000; stroke-width:60.000000; stroke-opacity:1; 
stroke-linecap:round; stroke-linejoin:round;">
<path d="M51000 36600
L51000 35500
" />
<path d="M51000 37400
L51000 38500
" />
</g>
<g style="fill:#006464; fill-opacity:0.0; 
stroke:#006464; stroke-width:60.000000; stroke-opacity:1; 
stroke-linecap:round; stroke-linejoin:round;">
<text x="53019.330709" y="36749.921260"
textLength="1036.181102" font-size="666.653543" lengthAdjust="spacingAndGlyphs"
text-anchor="middle" opacity="0">C1</text>
<g class="stroked-text"><desc>C1</desc>
<path d="M52935 36678
L52912 36702
L52840 36726
L52793 36726
L52721 36702
L52674 36654
L52650 36607
L52626 36511
L52626 36440
L52650 36345
L52674 36297
L52721 36249
L52793 36226
L52840 36226
L52912 36249
L52935 36273
" />
<path d="M53412 36726
L53126 36726
" />
<path d="M53269 36726
L53269 36226
L53221 36297
L53174 36345
L53126 36368
" />
</g><text x="53566.968504" y="37749.921260"
textLength="2131.417323" font-size="666.653543" lengthAdjust="spacingAndGlyphs"
text-anchor="middle" opacity="0">4.7nF</text>
<g class="stroked-text"><desc>4.7nF</desc>
<path d="M52864 37392
L52864 37726
" />
<path d="M52745 37202
L52626 37559
L52935 37559
" />
<path d="M53126 37678
L53150 37702
L53126 37726
L53102 37702
L53126 37678
L53126 37726
" />
<path d="M53316 37226
L53650 37226
L53435 37726
" />
<path d="M53840 37392
L53840 37726
" />
<path d="M53840 37440
L53864 37416
L53912 37392
L53983 37392
L54031 37416
L54055 37464
L54055 37726
" />
<path d="M54459 37464
L54293 37464
" />
<path d="M54293 37726
L54293 37226
L54531 37226
" />
</g></g>
</g>
<g style="fill:#006464; fill-opacity:0.0; 
stroke:#006464; stroke-width:60.000000; stroke-opacity:1; 
stroke-linecap:round; stroke-linejoin:round;">
<g >
</g>
<g style="fill:#840000; fill-opacity:0.0; 
stroke:#840000; stroke-width:60.000000; stroke-opacity:1; 
stroke-linecap:round; stroke-linejoin:round;">
<path style="fill:#840000; fill-opacity:0.0; 
stroke:#840000; stroke-width:60.000000; stroke-opacity:1; 
stroke-linecap:round; stroke-linejoin:round;fill:none"
d="M 51000.000000,40500.000000
51000.000000,41000.000000
51500.000000,41000.000000
51000.000000,41500.000000
50500.000000,41000.000000
51000.000000,41000.000000
" /> 
</g>
<g style="fill:#006464; fill-opacity:0.0; 
stroke:#006464; stroke-width:60.000000; stroke-opacity:1; 
stroke-linecap:round; stroke-linejoin:round;">
<text x="51000.000000" y="42749.960630"
textLength="1583.818898" font-size="666.653543" lengthAdjust="spacingAndGlyphs"
text-anchor="middle" opacity="0">GND</text>
<g class="stroked-text"><desc>GND</desc>
<path d="M50619 42249
L50571 42226
L50500 42226
L50428 42249
L50380 42297
L50357 42345
L50333 42440
L50333 42511
L50357 42607
L50380 42654
L50428 42702
L50500 42726
L50547 42726
L50619 42702
L50642 42678
L50642 42511
L50547 42511
" />
<path d="M50857 42726
L50857 42226
L51142 42726
L51142 42226
" />
<path d="M51380 42726
L51380 42226
L51500 42226
L51571 42249
L51619 42297
L51642 42345
L51666 42440
L51666 42511
L51642 42607
L51619 42654
L51571 42702
L51500 42726
L51380 42726
" />
</g></g>
</g>
<g style="fill:#006464; fill-opacity:0.0; 
stroke:#006464; stroke-width:60.000000; stroke-opacity:1; 
stroke-linecap:round; stroke-linejoin:round;">
<g >
</g>
<g style="fill:#840000; fill-opacity:0.0; 
stroke:#840000; stroke-width:60.000000; stroke-opacity:1; 
stroke-linecap:round; stroke-linejoin:round;">
<path style="fill:#840000; fill-opacity:0.0; 
stroke:#840000; stroke-width:60.000000; stroke-opacity:1; 
stroke-linecap:round; stroke-linejoin:round;fill:none"
d="M 56000.000000,40500.000000
56000.000000,41000.000000
56500.000000,41000.000000
56000.000000,41500.000000
55500.000000,41000.000000
56000.000000,41000.000000
" /> 
</g>
<g style="fill:#006464; fill-opacity:0.0; 
stroke:#006464; stroke-width:60.000000; stroke-opacity:1; 
stroke-linecap:round; stroke-linejoin:round;">
<text x="56000.000000" y="42749.960630"
textLength="1583.818898" font-size="666.653543" lengthAdjust="spacingAndGlyphs"
text-anchor="middle" opacity="0">GND</text>
<g class="stroked-text"><desc>GND</desc>
<path d="M55619 42249
L55571 42226
L55500 42226
L55428 42249
L55380 42297
L55357 42345
L55333 42440
L55333 42511
L55357 42607
L55380 42654
L55428 42702
L55500 42726
L55547 42726
L55619 42702
L55642 42678
L55642 42511
L55547 42511
" />
<path d="M55857 42726
L55857 42226
L56142 42726
L56142 42226
" />
<path d="M56380 42726
L56380 42226
L56500 42226
L56571 42249
L56619 42297
L56642 42345
L56666 42440
L56666 42511
L56642 42607
L56619 42654
L56571 42702
L56500 42726
L56380 42726
" />
</g></g>
</g>
<g style="fill:#006464; fill-opacity:0.0; 
stroke:#006464; stroke-width:60.000000; stroke-opacity:1; 
stroke-linecap:round; stroke-linejoin:round;">
<g >
</g>
<g style="fill:#840000; fill-opacity:0.0; 
stroke:#840000; stroke-width:60.000000; stroke-opacity:1; 
stroke-linecap:round; stroke-linejoin:round;">
</g>
<g style="fill:#840000; fill-opacity:0.0; 
stroke:#840000; stroke-width:100.000000; stroke-opacity:1; 
stroke-linecap:round; stroke-linejoin:round;">
<rect x="46000.000000" y="33100.000000" width="2000.000000" height="800.000000" rx="0.000000" />
</g>
<g style="fill:#840000; fill-opacity:0.0; 
stroke:#840000; stroke-width:60.000000; stroke-opacity:1; 
stroke-linecap:round; stroke-linejoin:round;">
<path d="M46000 33500
L45500 33500
" />
<path d="M48000 33500
L48500 33500
" />
</g>
<g style="fill:#006464; fill-opacity:0.0; 
stroke:#006464; stroke-width:60.000000; stroke-opacity:1; 
stroke-linecap:round; stroke-linejoin:round;">
<text x="46999.960630" y="31250.000000"
textLength="1036.181102" font-size="666.653543" lengthAdjust="spacingAndGlyphs"
text-anchor="middle" opacity="0">R1</text>
<g class="stroked-text"><desc>R1</desc>
<path d="M46916 31226
L46749 30988
" />
<path d="M46630 31226
L46630 30726
L46821 30726
L46868 30750
L46892 30773
L46916 30821
L46916 30892
L46892 30940
L46868 30964
L46821 30988
L46630 30988
" />
<path d="M47392 31226
L47107 31226
" />
<path d="M47249 31226
L47249 30726
L47202 30797
L47154 30845
L47107 30869
" />
</g><text x="46999.960630" y="32250.000000"
textLength="1655.236220" font-size="666.653543" lengthAdjust="spacingAndGlyphs"
text-anchor="middle" opacity="0">4.7k</text>
<g class="stroked-text"><desc>4.7k</desc>
<path d="M46535 31892
L46535 32226
" />
<path d="M46416 31702
L46297 32059
L46607 32059
" />
<path d="M46797 32178
L46821 32202
L46797 32226
L46773 32202
L46797 32178
L46797 32226
" />
<path d="M46988 31726
L47321 31726
L47107 32226
" />
<path d="M47511 32226
L47511 31726
" />
<path d="M47559 32035
L47702 32226
" />
<path d="M47702 31892
L47511 32083
" />
</g></g>
</g>
<g style="fill:#006464; fill-opacity:0.0; 
stroke:#006464; stroke-width:60.000000; stroke-opacity:1; 
stroke-linecap:round; stroke-linejoin:round;">
<g >
</g>
<g style="fill:#840000; fill-opacity:0.0; 
stroke:#840000; stroke-width:60.000000; stroke-opacity:1; 
stroke-linecap:round; stroke-linejoin:round;">
</g>
<g style="fill:#840000; fill-opacity:0.0; 
stroke:#840000; stroke-width:100.000000; stroke-opacity:1; 
stroke-linecap:round; stroke-linejoin:round;">
<rect x="52500.000000" y="33100.000000" width="2000.000000" height="800.000000" rx="0.000000" />
</g>
<g style="fill:#840000; fill-opacity:0.0; 
stroke:#840000; stroke-width:60.000000; stroke-opacity:1; 
stroke-linecap:round; stroke-linejoin:round;">
<path d="M52500 33500
L52000 33500
" />
<path d="M54500 33500
L55000 33500
" />
</g>
<g style="fill:#006464; fill-opacity:0.0; 
stroke:#006464; stroke-width:60.000000; stroke-opacity:1; 
stroke-linecap:round; stroke-linejoin:round;">
<text x="53499.960630" y="31250.000000"
textLength="1036.181102" font-size="666.653543" lengthAdjust="spacingAndGlyphs"
text-anchor="middle" opacity="0">R2</text>
<g class="stroked-text"><desc>R2</desc>
<path d="M53416 31226
L53249 30988
" />
<path d="M53130 31226
L53130 30726
L53321 30726
L53368 30750
L53392 30773
L53416 30821
L53416 30892
L53392 30940
L53368 30964
L53321 30988
L53130 30988
" />
<path d="M53607 30773
L53630 30750
L53678 30726
L53797 30726
L53845 30750
L53868 30773
L53892 30821
L53892 30869
L53868 30940
L53583 31226
L53892 31226
" />
</g><text x="53499.960630" y="32250.000000"
textLength="1655.236220" font-size="666.653543" lengthAdjust="spacingAndGlyphs"
text-anchor="middle" opacity="0">4.7k</text>
<g class="stroked-text"><desc>4.7k</desc>
<path d="M53035 31892
L53035 32226
" />
<path d="M52916 31702
L52797 32059
L53107 32059
" />
<path d="M53297 32178
L53321 32202
L53297 32226
L53273 32202
L53297 32178
L53297 32226
" />
<path d="M53488 31726
L53821 31726
L53607 32226
" />
<path d="M54011 32226
L54011 31726
" />
<path d="M54059 32035
L54202 32226
" />
<path d="M54202 31892
L54011 32083
" />
</g></g>
</g>
<g style="fill:#006464; fill-opacity:0.0; 
stroke:#006464; stroke-width:60.000000; stroke-opacity:1; 
stroke-linecap:round; stroke-linejoin:round;">
<g >
</g>
<g style="fill:#840000; fill-opacity:0.0; 
stroke:#840000; stroke-width:60.000000; stroke-opacity:1; 
stroke-linecap:round; stroke-linejoin:round;">
</g>
<g style="fill:#840000; fill-opacity:0.0; 
stroke:#840000; stroke-width:200.000000; stroke-opacity:1; 
stroke-linecap:round; stroke-linejoin:round;">
<path style="fill:#840000; fill-opacity:0.0; 
stroke:#840000; stroke-width:200.000000; stroke-opacity:1; 
stroke-linecap:round; stroke-linejoin:round;fill:none"
d="M 55200.000000,37300.000000
56800.000000,37300.000000
" /> 
<path style="fill:#840000; fill-opacity:0.0; 
stroke:#840000; stroke-width:200.000000; stroke-opacity:1; 
stroke-linecap:round; stroke-linejoin:round;fill:none"
d="M 55200.000000,36700.000000
56800.000000,36700.000000
" /> 
</g>
<g style="fill:#840000; fill-opacity:0.0; 
stroke:#840000; stroke-width:60.000000; stroke-opacity:1; 
stroke-linecap:round; stroke-linejoin:round;">
<path d="M56000 36600
L56000 35500
" />
<path d="M56000 37400
L56000 38500
" />
</g>
<g style="fill:#006464; fill-opacity:0.0; 
stroke:#006464; stroke-width:60.000000; stroke-opacity:1; 
stroke-linecap:round; stroke-linejoin:round;">
<text x="58019.330709" y="36749.921260"
textLength="1036.181102" font-size="666.653543" lengthAdjust="spacingAndGlyphs"
text-anchor="middle" opacity="0">C2</text>
<g class="stroked-text"><desc>C2</desc>
<path d="M57935 36678
L57912 36702
L57840 36726
L57793 36726
L57721 36702
L57674 36654
L57650 36607
L57626 36511
L57626 36440
L57650 36345
L57674 36297
L57721 36249
L57793 36226
L57840 36226
L57912 36249
L57935 36273
" />
<path d="M58126 36273
L58150 36249
L58197 36226
L58316 36226
L58364 36249
L58388 36273
L58412 36321
L58412 36368
L58388 36440
L58102 36726
L58412 36726
" />
</g><text x="58566.968504" y="37749.921260"
textLength="2131.417323" font-size="666.653543" lengthAdjust="spacingAndGlyphs"
text-anchor="middle" opacity="0">4.7nF</text>
<g class="stroked-text"><desc>4.7nF</desc>
<path d="M57864 37392
L57864 37726
" />
<path d="M57745 37202
L57626 37559
L57935 37559
" />
<path d="M58126 37678
L58150 37702
L58126 37726
L58102 37702
L58126 37678
L58126 37726
" />
<path d="M58316 37226
L58650 37226
L58435 37726
" />
<path d="M58840 37392
L58840 37726
" />
<path d="M58840 37440
L58864 37416
L58912 37392
L58983 37392
L59031 37416
L59055 37464
L59055 37726
" />
<path d="M59459 37464
L59293 37464
" />
<path d="M59293 37726
L59293 37226
L59531 37226
" />
</g></g>
</g>
<g style="fill:#006464; fill-opacity:0.0; 
stroke:#006464; stroke-width:62.519685; stroke-opacity:1; 
stroke-linecap:round; stroke-linejoin:round;">
</g>
<g style="fill:#006464; fill-opacity:0.0; 
stroke:#006464; stroke-width:60.000000; stroke-opacity:1; 
stroke-linecap:round; stroke-linejoin:round;">
</g>
<g style="fill:#840000; fill-opacity:0.0; 
stroke:#840000; stroke-width:60.000000; stroke-opacity:1; 
stroke-linecap:round; stroke-linejoin:round;">
<text x="40687.519685" y="34785.748031"
textLength="3012.362205" font-size="666.653543" lengthAdjust="spacingAndGlyphs"
text-anchor="start" opacity="0">to relay</text>
<g class="stroked-text"><desc>to relay</desc>
<path d="M40765 34428
L40955 34428
" />
<path d="M40836 34261
L40836 34690
L40860 34738
L40907 34761
L40955 34761
" />
<path d="M41193 34761
L41146 34738
L41122 34714
L41098 34666
L41098 34523
L41122 34476
L41146 34452
L41193 34428
L41265 34428
L41312 34452
L41336 34476
L41360 34523
L41360 34666
L41336 34714
L41312 34738
L41265 34761
L41193 34761
" />
<path d="M41955 34761
L41955 34428
" />
<path d="M41955 34523
L41979 34476
L42003 34452
L42050 34428
L42098 34428
" />
<path d="M42455 34738
L42407 34761
L42312 34761
L42265 34738
L42241 34690
L42241 34500
L42265 34452
L42312 34428
L42407 34428
L42455 34452
L42479 34500
L42479 34547
L42241 34595
" />
<path d="M42765 34761
L42717 34738
L42693 34690
L42693 34261
" />
<path d="M43169 34761
L43169 34500
L43146 34452
L43098 34428
L43003 34428
L42955 34452
" />
<path d="M43169 34738
L43122 34761
L43003 34761
L42955 34738
L42931 34690
L42931 34642
L42955 34595
L43003 34571
L43122 34571
L43169 34547
" />
<path d="M43360 34428
L43479 34761
" />
<path d="M43598 34428
L43479 34761
L43431 34880
L43407 34904
L43360 34928
" />
</g><path style="fill:#840000; fill-opacity:0.0; 
stroke:#840000; stroke-width:60.000000; stroke-opacity:1; 
stroke-linecap:round; stroke-linejoin:round;fill:none"
d="M 40500.000000,34500.000000
40500.000000,35000.157480
43952.559055,35000.157480
44390.078740,34500.000000
43952.559055,33999.842520
40500.000000,33999.842520
Z" /> 
</g>
<g style="fill:#840000; fill-opacity:0.0; 
stroke:#840000; stroke-width:62.519685; stroke-opacity:1; 
stroke-linecap:round; stroke-linejoin:round;">
</g>
<g style="fill:#840000; fill-opacity:0.0; 
stroke:#840000; stroke-width:60.000000; stroke-opacity:1; 
stroke-linecap:round; stroke-linejoin:round;">
<text x="45062.519685" y="35785.748031"
textLength="5514.881890" font-size="666.653543" lengthAdjust="spacingAndGlyphs"
text-anchor="start" opacity="0">Lever 2 / dah</text>
<g class="stroked-text"><desc>Lever 2 / dah</desc>
<path d="M45449 35761
L45211 35761
L45211 35261
" />
<path d="M45806 35738
L45759 35761
L45663 35761
L45616 35738
L45592 35690
L45592 35500
L45616 35452
L45663 35428
L45759 35428
L45806 35452
L45830 35500
L45830 35547
L45592 35595
" />
<path d="M45997 35428
L46116 35761
L46235 35428
" />
<path d="M46616 35738
L46568 35761
L46473 35761
L46425 35738
L46402 35690
L46402 35500
L46425 35452
L46473 35428
L46568 35428
L46616 35452
L46640 35500
L46640 35547
L46402 35595
" />
<path d="M46854 35761
L46854 35428
" />
<path d="M46854 35523
L46878 35476
L46902 35452
L46949 35428
L46997 35428
" />
<path d="M47521 35309
L47544 35285
L47592 35261
L47711 35261
L47759 35285
L47782 35309
L47806 35357
L47806 35404
L47782 35476
L47497 35761
L47806 35761
" />
<path d="M48759 35238
L48330 35880
" />
<path d="M49521 35761
L49521 35261
" />
<path d="M49521 35738
L49473 35761
L49378 35761
L49330 35738
L49306 35714
L49282 35666
L49282 35523
L49306 35476
L49330 35452
L49378 35428
L49473 35428
L49521 35452
" />
<path d="M49973 35761
L49973 35500
L49949 35452
L49902 35428
L49806 35428
L49759 35452
" />
<path d="M49973 35738
L49925 35761
L49806 35761
L49759 35738
L49735 35690
L49735 35642
L49759 35595
L49806 35571
L49925 35571
L49973 35547
" />
<path d="M50211 35761
L50211 35261
" />
<path d="M50425 35761
L50425 35500
L50402 35452
L50354 35428
L50282 35428
L50235 35452
L50211 35476
" />
</g><path style="fill:#840000; fill-opacity:0.0; 
stroke:#840000; stroke-width:60.000000; stroke-opacity:1; 
stroke-linecap:round; stroke-linejoin:round;fill:none"
d="M 44500.000000,35500.000000
44937.519685,36000.157480
50890.078740,36000.157480
50890.078740,35500.000000
50890.078740,34999.842520
44937.519685,34999.842520
Z" /> 
</g>
<g style="fill:#840000; fill-opacity:0.0; 
stroke:#840000; stroke-width:62.519685; stroke-opacity:1; 
stroke-linecap:round; stroke-linejoin:round;">
</g>
<g style="fill:#840000; fill-opacity:0.0; 
stroke:#840000; stroke-width:60.000000; stroke-opacity:1; 
stroke-linecap:round; stroke-linejoin:round;">
<text x="41562.519685" y="36785.748031"
textLength="5133.937008" font-size="666.653543" lengthAdjust="spacingAndGlyphs"
text-anchor="start" opacity="0">Lever 1 / dit</text>
<g class="stroked-text"><desc>Lever 1 / dit</desc>
<path d="M41949 36761
L41711 36761
L41711 36261
" />
<path d="M42306 36738
L42259 36761
L42163 36761
L42116 36738
L42092 36690
L42092 36500
L42116 36452
L42163 36428
L42259 36428
L42306 36452
L42330 36500
L42330 36547
L42092 36595
" />
<path d="M42497 36428
L42616 36761
L42735 36428
" />
<path d="M43116 36738
L43068 36761
L42973 36761
L42925 36738
L42902 36690
L42902 36500
L42925 36452
L42973 36428
L43068 36428
L43116 36452
L43140 36500
L43140 36547
L42902 36595
" />
<path d="M43354 36761
L43354 36428
" />
<path d="M43354 36523
L43378 36476
L43402 36452
L43449 36428
L43497 36428
" />
<path d="M44306 36761
L44021 36761
" />
<path d="M44163 36761
L44163 36261
L44116 36333
L44068 36380
L44021 36404
" />
<path d="M45259 36238
L44830 36880
" />
<path d="M46021 36761
L46021 36261
" />
<path d="M46021 36738
L45973 36761
L45878 36761
L45830 36738
L45806 36714
L45782 36666
L45782 36523
L45806 36476
L45830 36452
L45878 36428
L45973 36428
L46021 36452
" />
<path d="M46259 36761
L46259 36428
" />
<path d="M46259 36261
L46235 36285
L46259 36309
L46282 36285
L46259 36261
L46259 36309
" />
<path d="M46425 36428
L46616 36428
" />
<path d="M46497 36261
L46497 36690
L46521 36738
L46568 36761
L46616 36761
" />
</g><path style="fill:#840000; fill-opacity:0.0; 
stroke:#840000; stroke-width:60.000000; stroke-opacity:1; 
stroke-linecap:round; stroke-linejoin:round;fill:none"
d="M 41000.000000,36500.000000
41437.519685,37000.157480
47009.133858,37000.157480
47009.133858,36500.000000
47009.133858,35999.842520
41437.519685,35999.842520
Z" /> 
</g>
<g style="fill:#840000; fill-opacity:0.0; 
stroke:#840000; stroke-width:62.519685; stroke-opacity:1; 
stroke-linecap:round; stroke-linejoin:round;">
</g>
<g style="fill:#840000; fill-opacity:0.0; 
stroke:#840000; stroke-width:60.000000; stroke-opacity:1; 
stroke-linecap:round; stroke-linejoin:round;">
<text x="63187.519685" y="33785.748031"
textLength="6943.464567" font-size="666.653543" lengthAdjust="spacingAndGlyphs"
text-anchor="start" opacity="0">to audio amplifier</text>
<g class="stroked-text"><desc>to audio amplifier</desc>
<path d="M63265 33428
L63455 33428
" />
<path d="M63336 33261
L63336 33690
L63360 33738
L63407 33761
L63455 33761
" />
<path d="M63693 33761
L63646 33738
L63622 33714
L63598 33666
L63598 33523
L63622 33476
L63646 33452
L63693 33428
L63765 33428
L63812 33452
L63836 33476
L63860 33523
L63860 33666
L63836 33714
L63812 33738
L63765 33761
L63693 33761
" />
<path d="M64669 33761
L64669 33500
L64646 33452
L64598 33428
L64503 33428
L64455 33452
" />
<path d="M64669 33738
L64622 33761
L64503 33761
L64455 33738
L64431 33690
L64431 33642
L64455 33595
L64503 33571
L64622 33571
L64669 33547
" />
<path d="M65122 33428
L65122 33761
" />
<path d="M64907 33428
L64907 33690
L64931 33738
L64979 33761
L65050 33761
L65098 33738
L65122 33714
" />
<path d="M65574 33761
L65574 33261
" />
<path d="M65574 33738
L65527 33761
L65431 33761
L65384 33738
L65360 33714
L65336 33666
L65336 33523
L65360 33476
L65384 33452
L65431 33428
L65527 33428
L65574 33452
" />
<path d="M65812 33761
L65812 33428
" />
<path d="M65812 33261
L65788 33285
L65812 33309
L65836 33285
L65812 33261
L65812 33309
" />
<path d="M66122 33761
L66074 33738
L66050 33714
L66027 33666
L66027 33523
L66050 33476
L66074 33452
L66122 33428
L66193 33428
L66241 33452
L66265 33476
L66288 33523
L66288 33666
L66265 33714
L66241 33738
L66193 33761
L66122 33761
" />
<path d="M67098 33761
L67098 33500
L67074 33452
L67027 33428
L66931 33428
L66884 33452
" />
<path d="M67098 33738
L67050 33761
L66931 33761
L66884 33738
L66860 33690
L66860 33642
L66884 33595
L66931 33571
L67050 33571
L67098 33547
" />
<path d="M67336 33761
L67336 33428
" />
<path d="M67336 33476
L67360 33452
L67407 33428
L67479 33428
L67527 33452
L67550 33500
L67550 33761
" />
<path d="M67550 33500
L67574 33452
L67622 33428
L67693 33428
L67741 33452
L67765 33500
L67765 33761
" />
<path d="M68003 33428
L68003 33928
" />
<path d="M68003 33452
L68050 33428
L68146 33428
L68193 33452
L68217 33476
L68241 33523
L68241 33666
L68217 33714
L68193 33738
L68146 33761
L68050 33761
L68003 33738
" />
<path d="M68527 33761
L68479 33738
L68455 33690
L68455 33261
" />
<path d="M68717 33761
L68717 33428
" />
<path d="M68717 33261
L68693 33285
L68717 33309
L68741 33285
L68717 33261
L68717 33309
" />
<path d="M68884 33428
L69074 33428
" />
<path d="M68955 33761
L68955 33333
L68979 33285
L69027 33261
L69074 33261
" />
<path d="M69241 33761
L69241 33428
" />
<path d="M69241 33261
L69217 33285
L69241 33309
L69265 33285
L69241 33261
L69241 33309
" />
<path d="M69669 33738
L69622 33761
L69527 33761
L69479 33738
L69455 33690
L69455 33500
L69479 33452
L69527 33428
L69622 33428
L69669 33452
L69693 33500
L69693 33547
L69455 33595
" />
<path d="M69907 33761
L69907 33428
" />
<path d="M69907 33523
L69931 33476
L69955 33452
L70003 33428
L70050 33428
" />
</g><path style="fill:#840000; fill-opacity:0.0; 
stroke:#840000; stroke-width:60.000000; stroke-opacity:1; 
stroke-linecap:round; stroke-linejoin:round;fill:none"
d="M 63000.000000,33500.000000
63000.000000,34000.157480
70381.141732,34000.157480
70818.661417,33500.000000
70381.141732,32999.842520
63000.000000,32999.842520
Z" /> 
</g>
<g style="fill:#009600; fill-opacity:0.0; 
stroke:#009600; stroke-width:60.000000; stroke-opacity:1; 
stroke-linecap:round; stroke-linejoin:round;">
<path d="M39500 34500
L40500 34500
" />
<path d="M39500 33500
L45500 33500
" />
<path d="M33500 41500
L33500 44500
" />
<path d="M39500 36500
L41000 36500
" />
<path d="M39500 35500
L44500 35500
" />
<path d="M33500 22500
L33500 29500
" />
<path d="M32500 22500
L33500 22500
" />
<path d="M56000 38500
L56000 40500
" />
<path d="M51000 38500
L51000 40500
" />
<path d="M51000 33500
L51000 35500
" />
<path d="M51000 33500
L52000 33500
" />
<path d="M48500 33500
L51000 33500
" />
<path d="M55000 33500
L56000 33500
" />
<path d="M56000 33500
L56000 35500
" />
<path d="M56000 33500
L63000 33500
" />
</g>
<g style="fill:#009600; fill-opacity:1.0; 
stroke:#009600; stroke-width:60.000000; stroke-opacity:1; 
stroke-linecap:round; stroke-linejoin:round;">
<circle cx="33500.000000" cy="22500.000000" r="180.000000" /> 
<circle cx="51000.000000" cy="33500.000000" r="180.000000" /> 
<circle cx="56000.000000" cy="33500.000000" r="180.000000" /> 
</g> 
</svg>
